<svg id="Layer_1" data-name="Layer 1" xmlns="http://www.w3.org/2000/svg" viewBox="0 0 122.87 122.88"><title>date-5</title><path d="M81.6,4.73C81.6,2.12,84.18,0,87.37,0s5.77,2.12,5.77,4.73V25.45c0,2.61-2.58,4.73-5.77,4.73s-5.77-2.12-5.77-4.73V4.73ZM61.22,103.78q-3.37,0-7.45-.4c-2.71-.26-5.36-.53-7.93-.81V93.28H61.77a4,4,0,0,0,2.59-.63,2.45,2.45,0,0,0,.85-1.51,11.32,11.32,0,0,0,.12-1.48V87.79a4.12,4.12,0,0,0-.58-2.36,2.48,2.48,0,0,0-2.2-.84H59.9a3.18,3.18,0,0,0-2.08.54,2.33,2.33,0,0,0-.76,1.57H46l1.27-28.11H75.16V69.08H57.24l-.3,6.82a5.25,5.25,0,0,1,2.47-1,20.33,20.33,0,0,1,2.9-.22H66.9a10.4,10.4,0,0,1,5.73,1.45A8.87,8.87,0,0,1,76,80.06,13.75,13.75,0,0,1,77,85.62v6.57a11.73,11.73,0,0,1-1.72,6.67,9.7,9.7,0,0,1-5.22,3.74,28.37,28.37,0,0,1-8.87,1.18Zm-31.61-99C29.61,2.12,32.19,0,35.38,0s5.77,2.12,5.77,4.73V25.45c0,2.61-2.58,4.73-5.77,4.73s-5.77-2.12-5.77-4.73V4.73ZM6.4,38.76H116.46V21.47a3,3,0,0,0-.86-2.07,2.92,2.92,0,0,0-2.07-.86H103a3.2,3.2,0,1,1,0-6.4h10.55a9.36,9.36,0,0,1,9.33,9.33v92.08a9.36,9.36,0,0,1-9.33,9.33H9.33A9.36,9.36,0,0,1,0,113.54V21.47a9.36,9.36,0,0,1,9.33-9.33H20.6a3.2,3.2,0,1,1,0,6.4H9.33a3,3,0,0,0-2.07.86,2.92,2.92,0,0,0-.86,2.07V38.76Zm110.07,6.41H6.4v68.37a3,3,0,0,0,.86,2.07,2.92,2.92,0,0,0,2.07.86H113.54a3,3,0,0,0,2.07-.86,2.92,2.92,0,0,0,.86-2.07V45.17Zm-66-26.63a3.2,3.2,0,0,1,0-6.4H71.91a3.2,3.2,0,1,1,0,6.4Z"/></svg>