<?xml version="1.0" standalone="no"?>
<!DOCTYPE svg PUBLIC "-//W3C//DTD SVG 20010904//EN"
 "http://www.w3.org/TR/2001/REC-SVG-20010904/DTD/svg10.dtd">
<svg version="1.0" xmlns="http://www.w3.org/2000/svg"
 width="1500.000000pt" height="1500.000000pt" viewBox="0 0 1500.000000 1500.000000"
 preserveAspectRatio="xMidYMid meet">

<g transform="translate(0.000000,1500.000000) scale(0.100000,-0.100000)"
fill="#000000" stroke="none">
<path d="M3913 14884 c-250 -39 -478 -156 -676 -343 -198 -188 -327 -416 -393
-696 -14 -59 -18 -148 -21 -572 l-4 -503 -562 0 c-598 0 -679 -5 -817 -50
-140 -46 -253 -115 -367 -224 -101 -95 -184 -208 -243 -330 -60 -124 -86 -217
-100 -355 -8 -74 -10 -1734 -8 -5476 l3 -5370 28 -100 c65 -238 205 -445 402
-593 91 -68 248 -146 355 -174 l85 -23 5945 0 5945 0 84 23 c182 50 321 133
457 274 140 146 222 284 281 473 l28 90 0 5485 0 5485 -28 90 c-115 370 -394
645 -754 743 l-98 26 -602 4 -603 3 0 430 c0 236 -5 473 -11 527 -27 257 -115
471 -274 669 -158 197 -372 352 -595 431 -184 64 -210 67 -695 67 -484 0 -510
-3 -695 -67 -348 -122 -673 -447 -796 -798 -68 -197 -67 -186 -71 -747 l-4
-513 -1574 0 -1574 0 -4 503 c-3 462 -5 509 -24 592 -58 251 -155 433 -333
618 -198 207 -413 331 -680 393 -106 24 -867 30 -1007 8z m855 -1088 c52 -23
114 -91 130 -144 9 -29 12 -362 12 -1298 0 -1205 -1 -1261 -19 -1299 -23 -50
-73 -98 -126 -122 -35 -16 -77 -18 -353 -21 -372 -4 -399 0 -472 76 -26 27
-51 64 -58 88 -9 32 -12 331 -12 1295 l0 1254 24 50 c35 76 87 116 181 139 11
2 162 4 335 3 282 -2 319 -4 358 -21z m6295 -4 c26 -13 61 -40 77 -60 63 -76
61 -14 58 -1393 l-3 -1254 -25 -45 c-34 -60 -97 -106 -165 -120 -36 -7 -159
-10 -362 -8 l-308 3 -54 30 c-64 35 -105 93 -121 169 -7 35 -10 440 -8 1281
l3 1230 28 56 c18 37 41 66 68 84 72 51 106 54 449 52 308 -2 316 -3 363 -25z
m2235 -8439 l-3 -4238 -5762 -3 -5763 -2 0 4240 0 4240 5765 0 5765 0 -2
-4237z"/>
<path d="M3250 7560 l0 -1120 793 2 792 3 3 218 2 217 -510 0 -510 0 0 900 0
900 -285 0 -285 0 0 -1120z"/>
<path d="M5200 7560 l0 -1120 795 0 795 0 0 220 0 220 -505 0 -505 0 0 255 0
255 460 0 460 0 0 220 0 220 -460 0 -460 0 0 205 0 205 488 2 487 3 3 218 2
217 -780 0 -780 0 0 -1120z"/>
<path d="M7849 8653 c-6 -16 -190 -512 -409 -1103 -219 -591 -401 -1083 -405
-1092 -7 -17 11 -18 283 -18 l290 0 41 118 c23 64 56 156 73 205 l31 87 451 0
451 0 70 -202 70 -203 289 -3 c286 -2 288 -2 283 18 -3 11 -189 515 -413 1120
l-407 1100 -344 0 -343 0 -11 -27z m509 -948 l148 -430 -299 -3 c-165 -1 -302
-1 -304 1 -2 2 56 174 128 383 72 208 140 406 152 439 11 33 22 55 24 50 2 -6
70 -203 151 -440z"/>
<path d="M9670 7560 l0 -1120 288 2 287 3 3 388 2 387 238 0 c353 0 490 22
660 106 164 80 272 206 328 379 35 110 44 294 20 415 -61 306 -303 504 -671
549 -55 7 -296 11 -622 11 l-533 0 0 -1120z m1071 674 c118 -55 173 -145 173
-284 0 -107 -27 -173 -92 -230 -75 -67 -137 -80 -373 -80 l-199 0 0 311 0 311
223 -4 c201 -3 226 -5 268 -24z"/>
<path d="M2946 5198 c4 -7 195 -299 426 -649 l418 -636 0 -466 0 -467 285 0
285 0 0 468 0 467 416 630 c228 347 420 638 425 648 9 16 -8 17 -305 17 l-315
0 -252 -396 c-228 -356 -255 -393 -267 -377 -7 10 -122 188 -254 396 l-241
377 -314 0 c-249 0 -313 -3 -307 -12z"/>
<path d="M5470 4095 l0 -1115 795 0 795 0 0 215 0 215 -505 0 -505 0 0 255 0
255 458 2 457 3 3 218 2 217 -460 0 -460 0 0 210 0 210 490 0 490 0 0 215 0
215 -780 0 -780 0 0 -1115z"/>
<path d="M8126 5202 c-2 -4 -184 -493 -404 -1087 -220 -594 -405 -1092 -411
-1108 l-11 -27 291 2 291 3 44 125 c24 69 56 158 70 198 l26 72 452 0 452 0
69 -200 68 -200 289 0 c158 0 288 2 288 4 0 3 -171 468 -381 1033 -209 565
-394 1065 -411 1111 l-30 82 -343 0 c-189 0 -346 -4 -349 -8z m503 -967 l148
-430 -300 -3 c-165 -1 -302 -1 -304 1 -3 3 265 792 293 861 4 11 9 16 11 10 2
-5 70 -202 152 -439z"/>
<path d="M9940 4095 l0 -1115 290 0 290 0 0 420 0 420 118 0 c187 0 264 -32
348 -144 26 -34 113 -198 202 -378 l155 -318 309 0 308 0 -186 373 c-103 204
-209 405 -237 445 -66 96 -141 163 -221 198 l-65 28 60 23 c86 32 193 107 241
167 84 105 119 219 119 386 0 126 -14 196 -57 288 -83 174 -263 276 -549 311
-55 7 -292 11 -607 11 l-518 0 0 -1115z m988 680 c115 -35 167 -118 167 -270
0 -79 -4 -97 -28 -148 -52 -105 -143 -136 -394 -137 l-153 0 0 292 0 291 178
-6 c114 -4 196 -12 230 -22z"/>
</g>
</svg>
