<?xml version="1.0" standalone="no"?>
<!DOCTYPE svg PUBLIC "-//W3C//DTD SVG 20010904//EN"
 "http://www.w3.org/TR/2001/REC-SVG-20010904/DTD/svg10.dtd">
<svg version="1.0" xmlns="http://www.w3.org/2000/svg"
 width="480.000000pt" height="480.000000pt" viewBox="0 0 480.000000 480.000000"
 preserveAspectRatio="xMidYMid meet">

<g transform="translate(0.000000,480.000000) scale(0.100000,-0.100000)"
fill="#000000" stroke="none">
<path d="M1226 4759 c-67 -16 -155 -70 -207 -127 -96 -105 -119 -181 -119
-394 l0 -148 -168 0 c-93 0 -195 -5 -227 -11 -108 -20 -193 -89 -244 -198
l-26 -56 -3 -1740 c-2 -1305 0 -1754 9 -1795 27 -130 131 -232 263 -260 35 -7
646 -10 1941 -8 l1890 3 50 23 c99 45 175 142 195 247 8 43 10 542 8 1795 l-3
1735 -33 67 c-38 77 -92 130 -171 166 -53 25 -66 26 -258 30 l-203 4 0 143 c0
78 -4 166 -10 194 -24 125 -120 245 -244 303 l-71 33 -181 0 -180 0 -76 -38
c-53 -26 -91 -53 -123 -89 -100 -112 -125 -192 -125 -410 l0 -138 -500 0 -500
0 0 128 c0 70 -5 156 -10 191 -20 138 -114 261 -247 324 -67 31 -71 31 -228
34 -88 1 -177 -2 -199 -8z m319 -364 l25 -24 0 -411 c0 -249 -4 -419 -10 -430
-15 -27 -64 -40 -155 -40 -91 0 -140 13 -155 40 -6 11 -10 181 -10 430 l0 411
25 24 c23 24 30 25 140 25 110 0 117 -1 140 -25z m2012 3 l23 -21 0 -414 c0
-251 -4 -422 -10 -433 -15 -27 -64 -40 -155 -40 -91 0 -140 13 -155 40 -6 11
-10 181 -10 430 l0 411 25 24 c23 24 30 25 141 25 107 0 120 -2 141 -22z m693
-2683 l0 -1355 -1840 0 -1840 0 0 1355 0 1355 1840 0 1840 0 0 -1355z"/>
<path d="M2357 2610 c-85 -22 -170 -88 -208 -162 -28 -55 -49 -153 -49 -233 0
-268 149 -416 404 -403 183 10 286 92 331 265 18 68 19 191 4 265 -14 68 -64
162 -103 195 -65 55 -132 77 -241 80 -55 1 -117 -2 -138 -7z m232 -159 c56
-40 83 -114 84 -229 2 -185 -60 -271 -196 -272 -132 0 -198 88 -198 265 0 132
27 199 99 243 52 32 161 29 211 -7z"/>
<path d="M1230 2215 l0 -395 76 0 75 0 -3 295 c-2 178 1 290 6 285 5 -5 82
-137 172 -292 l162 -283 111 -3 111 -3 0 396 0 395 -82 0 -81 0 6 -290 c4
-159 5 -290 3 -290 -2 0 -80 131 -172 290 l-168 290 -108 0 -108 0 0 -395z"/>
<path d="M2940 2540 l0 -70 105 0 105 0 0 -325 0 -325 85 0 85 0 0 325 0 325
110 0 110 0 0 70 0 70 -300 0 -300 0 0 -70z"/>
<path d="M660 1185 l0 -245 156 0 155 0 -3 43 -3 42 -97 3 -98 3 0 199 0 200
-55 0 -55 0 0 -245z"/>
<path d="M1050 1185 l0 -245 140 0 140 0 0 45 0 45 -85 0 -85 0 0 60 0 60 80
0 80 0 0 40 0 40 -80 0 -80 0 0 55 0 55 85 0 85 0 0 45 0 45 -140 0 -140 0 0
-245z"/>
<path d="M1498 1298 c-25 -73 -64 -184 -86 -245 l-41 -113 57 0 57 0 18 60 17
60 90 0 90 0 17 -60 16 -60 57 0 57 0 -86 243 -87 242 -65 3 -64 3 -47 -133z
m146 -56 c14 -46 26 -85 26 -88 0 -2 -28 -4 -61 -4 -54 0 -61 2 -56 18 25 90
53 170 59 164 3 -4 18 -44 32 -90z"/>
<path d="M1910 1186 l0 -246 50 0 50 0 0 85 0 85 53 0 c61 0 131 31 159 70 29
41 34 109 10 163 -30 67 -61 80 -204 85 l-118 4 0 -246z m212 137 c11 -10 18
-30 18 -54 0 -46 -26 -68 -86 -72 l-39 -2 -3 73 -3 72 47 0 c30 0 54 -6 66
-17z"/>
<path d="M2460 1424 c0 -4 36 -73 80 -155 l80 -147 0 -91 0 -91 50 0 50 0 0
95 0 94 80 146 c44 80 80 148 80 150 0 3 -25 5 -55 5 l-55 0 -47 -95 c-26 -52
-51 -95 -55 -95 -5 0 -29 43 -55 95 l-48 95 -52 0 c-29 0 -53 -3 -53 -6z"/>
<path d="M2950 1185 l0 -245 141 0 140 0 -3 43 -3 42 -87 3 -88 3 0 59 0 60
85 0 85 0 0 40 0 39 -82 3 -83 3 -3 52 -3 52 88 3 88 3 3 43 3 42 -140 0 -141
0 0 -245z"/>
<path d="M3435 1413 c-13 -32 -165 -465 -165 -469 0 -2 25 -4 55 -4 l55 0 17
60 16 61 91 -3 90 -3 17 -55 16 -55 58 -3 c44 -2 56 0 53 10 -3 7 -42 118 -88
246 l-83 232 -62 0 c-51 0 -64 -3 -70 -17z m103 -171 l30 -92 -64 0 c-62 0
-63 1 -55 23 5 12 19 56 31 96 12 40 23 71 25 69 2 -2 17 -45 33 -96z"/>
<path d="M3800 1186 l0 -246 55 0 55 0 0 95 0 95 28 0 c23 -1 35 -13 85 -95
l58 -95 55 0 c30 0 54 2 54 5 0 3 -30 50 -66 104 l-66 99 41 41 c37 37 41 46
41 92 0 109 -49 141 -222 147 l-118 4 0 -246z m220 134 c44 -44 11 -100 -60
-103 l-45 -2 -3 63 -3 62 46 0 c32 0 51 -6 65 -20z"/>
</g>
</svg>
