<?xml version="1.0" encoding="UTF-8" standalone="no" ?>
<!DOCTYPE svg PUBLIC "-//W3C//DTD SVG 1.1//EN" "http://www.w3.org/Graphics/SVG/1.1/DTD/svg11.dtd">
<svg xmlns="http://www.w3.org/2000/svg" xmlns:xlink="http://www.w3.org/1999/xlink" version="1.1" width="1080" height="1080" viewBox="0 0 1080 1080" xml:space="preserve">
<desc>Created with Fabric.js 5.2.4</desc>
<defs>
</defs>
<g transform="matrix(1 0 0 1 540 540)" id="a0df8b8f-013d-431f-9d7c-1fdbbc7ee9a6"  >
<rect style="stroke: none; stroke-width: 1; stroke-dasharray: none; stroke-linecap: butt; stroke-dashoffset: 0; stroke-linejoin: miter; stroke-miterlimit: 4; fill: rgb(255,255,255); fill-rule: nonzero; opacity: 1; visibility: hidden;" vector-effect="non-scaling-stroke"  x="-540" y="-540" rx="0" ry="0" width="1080" height="1080" />
</g>
<g transform="matrix(1 0 0 1 540 540)" id="ac6ad80d-e2da-4e25-ac97-d2ff58b99a53"  >
</g>
<g transform="matrix(8.41 0 0 8.41 540 540)" id="c998cdf9-d72c-496e-86f7-fdf1f103865b"  >
<path style="stroke: rgb(0,0,0); stroke-width: 0; stroke-dasharray: none; stroke-linecap: butt; stroke-dashoffset: 0; stroke-linejoin: miter; stroke-miterlimit: 4; fill: rgb(0,32,63); fill-rule: nonzero; opacity: 1;" vector-effect="non-scaling-stroke"  transform=" translate(-70.5, -72.9)" d="M 13.3 126.4 L 13.3 37.4 C 13.3 35 14.200000000000001 32.9 15.9 31.099999999999998 C 17.6 29.299999999999997 19.7 28.499999999999996 22.1 28.499999999999996 L 30.900000000000002 28.499999999999996 L 30.900000000000002 21.799999999999997 C 30.900000000000002 18.699999999999996 32 16.099999999999998 34.1 13.899999999999997 C 36.300000000000004 11.699999999999996 38.800000000000004 10.599999999999998 41.9 10.599999999999998 L 46.3 10.599999999999998 C 49.3 10.599999999999998 51.9 11.699999999999998 54.099999999999994 13.899999999999999 C 56.3 16.099999999999998 57.3 18.7 57.3 21.799999999999997 L 57.3 28.499999999999996 L 83.69999999999999 28.499999999999996 L 83.69999999999999 21.799999999999997 C 83.69999999999999 18.699999999999996 84.79999999999998 16.099999999999998 86.89999999999999 13.899999999999997 C 89.1 11.699999999999996 91.6 10.599999999999998 94.69999999999999 10.599999999999998 L 99.1 10.599999999999998 C 102.1 10.599999999999998 104.69999999999999 11.699999999999998 106.89999999999999 13.899999999999999 C 109.1 16.099999999999998 110.1 18.7 110.1 21.799999999999997 L 110.1 28.499999999999996 L 118.89999999999999 28.499999999999996 C 121.3 28.499999999999996 123.3 29.399999999999995 125.1 31.099999999999998 C 126.8 32.9 127.69999999999999 34.9 127.69999999999999 37.4 L 127.69999999999999 126.30000000000001 C 127.69999999999999 128.70000000000002 126.79999999999998 130.8 125.1 132.60000000000002 C 123.39999999999999 134.40000000000003 121.3 135.20000000000002 118.89999999999999 135.20000000000002 L 22.1 135.20000000000002 C 19.700000000000003 135.20000000000002 17.700000000000003 134.3 15.900000000000002 132.60000000000002 C 14.2 130.8 13.3 128.8 13.3 126.4 z M 22.1 126.4 L 118.9 126.4 L 118.9 55.2 L 22.1 55.2 L 22.1 126.4 z M 39.7 41.9 C 39.7 42.5 39.900000000000006 43.1 40.300000000000004 43.5 C 40.7 43.9 41.2 44.1 41.900000000000006 44.1 L 46.300000000000004 44.1 C 46.900000000000006 44.1 47.50000000000001 43.9 47.900000000000006 43.5 C 48.300000000000004 43.1 48.50000000000001 42.6 48.50000000000001 41.9 L 48.50000000000001 21.9 C 48.50000000000001 21.299999999999997 48.300000000000004 20.7 47.900000000000006 20.299999999999997 C 47.50000000000001 19.9 47.00000000000001 19.699999999999996 46.300000000000004 19.699999999999996 L 41.900000000000006 19.699999999999996 C 41.300000000000004 19.699999999999996 40.7 19.899999999999995 40.300000000000004 20.299999999999997 C 39.900000000000006 20.699999999999996 39.7 21.299999999999997 39.7 21.9 L 39.7 41.9 z M 92.5 41.9 C 92.5 42.5 92.7 43.1 93.1 43.5 C 93.5 43.9 94 44.1 94.69999999999999 44.1 L 99.1 44.1 C 99.69999999999999 44.1 100.3 43.9 100.69999999999999 43.5 C 101.1 43.1 101.29999999999998 42.6 101.29999999999998 41.9 L 101.29999999999998 21.9 C 101.29999999999998 21.299999999999997 101.09999999999998 20.7 100.69999999999999 20.299999999999997 C 100.29999999999998 19.9 99.79999999999998 19.699999999999996 99.1 19.699999999999996 L 94.69999999999999 19.699999999999996 C 94.1 19.699999999999996 93.49999999999999 19.899999999999995 93.1 20.299999999999997 C 92.69999999999999 20.699999999999996 92.5 21.299999999999997 92.5 21.9 L 92.5 41.9 z" stroke-linecap="round" />
</g>
<g transform="matrix(NaN NaN NaN NaN 0 0)"  >
<g style=""   >
</g>
</g>
<g transform="matrix(4.43 0 0 4.43 647.63 690.29)" id="f341b9e8-773b-466a-ab37-dabd3ddf943a"  >
<path style="stroke: rgb(0,0,0); stroke-width: 0; stroke-dasharray: none; stroke-linecap: butt; stroke-dashoffset: 0; stroke-linejoin: miter; stroke-miterlimit: 4; fill: rgb(255,204,0); fill-rule: nonzero; opacity: 1;" vector-effect="non-scaling-stroke"  transform=" translate(-61.46, -56.25)" d="M 61.44 9.37 C 81.14031036548666 9.370781077197613 99.11897265193628 20.595135793919674 107.76983261849261 38.29442535439683 C 116.42069258504895 55.99371491487398 114.23211040658649 77.0751888781699 102.13 92.62000000000002 L 102.33 92.86 L 109.25999999999999 102 C 110.74146541926204 104.14858738358187 110.2702241338936 107.08248704004737 108.19042461273162 108.65906608504663 C 106.11062509156962 110.23564513004588 103.15850339486346 109.89680441366008 101.49 107.89000000000001 L 95.35 99.79 C 75.92427175365663 116.75000171644356 46.95572824634336 116.75000171644356 27.53 99.79 L 21.380000000000003 107.89 C 19.753521411748316 110.03286482934348 16.69786482934348 110.45147858825169 14.555000000000001 108.825 C 12.412135170656523 107.19852141174832 11.993521411748313 104.14286482934348 13.62 102 L 20.72 92.64 L 20.72 92.64 C 8.610742107716916 77.08905269953341 6.422122402325103 55.996832915662395 15.080507659860743 38.29094538140423 C 23.738892917396385 20.58505784714606 41.73045888609558 9.361183933924565 61.43999999999999 9.370000000000005 Z M 104.78 21.659999999999997 C 101.54759281362767 18.277007582789672 97.99424377204537 15.215969859880866 94.16999999999999 12.519999999999975 C 90.92690478173147 10.237236364195857 87.49824503830277 8.230216026579043 83.92000000000004 6.519999999999996 C 107.33 -12.170000000000005 133.41 12.519999999999996 118.5 39.699999999999996 C 118.33 40.169999999999995 118.16 40.63999999999999 117.97 41.089999999999996 C 116.52823736362546 37.970457476567944 114.85698225916894 34.96219828854623 112.96999999999997 32.08999999999998 C 110.55423536361786 28.36113687868381 107.79559688193328 24.86596870528732 104.73000000000002 21.65 Z M 18.099999999999994 21.659999999999997 C 21.330174172248974 18.274657235433423 24.88376235524079 15.213413503808056 28.709999999999958 12.520000000000024 C 31.96482816303067 10.236545862137396 35.40711849108234 8.23272476738235 38.999999999999986 6.530000000000015 C 15.59 -12.16 -10.490000000000002 12.530000000000001 4.420000000000002 39.71 C 4.590000000000002 40.18 4.760000000000002 40.65 4.940000000000001 41.1 C 8.21985269194322 33.9359399703113 12.66705615954006 27.36651478717433 18.099999999999984 21.660000000000025 Z M 64.1 55.709999999999994 C 65.10856097071677 56.223255683194616 65.94594560653536 57.01894481847452 66.51 58 L 74.8 58 C 74.4058748332591 57.0658677427201 74.69149973552453 55.98343854740773 75.49520686171518 55.365383067325446 C 76.29891398790583 54.74732758724316 77.41839196874163 54.74922444847477 78.22 55.37 L 83.14 59.169999999999995 C 83.67727765307214 59.58828756481395 83.99401153277071 60.22912122839015 84 60.91 L 84 60.91 L 84 60.91 L 84 60.91 C 83.99617090632202 61.596471101193764 83.67497464123973 62.24255554245122 83.13 62.66 L 78.21 66.46 C 77.40839196874163 67.08077555152522 76.28891398790583 67.08267241275682 75.48520686171517 66.46461693267455 C 74.68149973552453 65.84656145259225 74.3958748332591 64.76413225727988 74.78999999999999 63.82999999999999 L 66.51 63.82999999999999 C 65.29867497553894 65.92638449046802 62.92448514906541 67.06395661089081 60.53165934987491 66.69446920719648 C 58.138833550684396 66.32498180350214 56.21836083035773 64.52425078756035 55.69580334402271 62.16012940314801 C 55.173245857687675 59.79600801873568 56.155828295373496 57.35359539707547 58.17 56.00999999999999 L 58.24 44.66999999999999 C 57.298548960645014 45.092608396036454 56.190030002227346 44.8107588046351 55.564765433733136 43.98980074523812 C 54.93950086523893 43.16884268584115 54.96238804105478 42.02528260848287 55.620000000000005 41.22999999999999 L 59.53 36.389999999999986 C 59.93664967526674 35.88688438180026 60.543321306154425 35.587203214735254 61.19 35.569999999999986 L 61.239999999999995 35.569999999999986 C 61.96478483621293 35.55623453719862 62.65103271785239 35.89562886996596 63.08 36.47999999999998 L 66.77 41.47999999999998 C 67.35608087654589 42.281600888089606 67.341520283361 43.37414843536848 66.73428517536942 44.15984576975453 C 66.12705006737785 44.945543104140576 65.07346166252064 45.23506620700013 64.14999999999999 44.86999999999998 L 64.08 55.639999999999986 Z M 82.5 92.48 C 82.97942020137181 93.24677585475904 83.00148507281175 94.21424567694699 82.55752054581743 95.00208096410766 C 82.1135560188231 95.78991625126835 81.27454753717723 96.27215009819565 80.37032331056054 96.25920834698896 C 79.46609908394385 96.24626659578227 78.64123543344219 95.74021850174663 78.22 94.94 L 76.37 91.74 C 75.75118764142081 90.56444576326814 76.17304093943244 89.10999272530535 77.32482404412247 88.44798654831061 C 78.47660714881249 87.78598037131589 79.94571179913068 88.15357440159379 80.65 89.28 L 82.5 92.48 Z M 40.38 29.41 C 39.830907269808876 28.640205545329618 39.769474196814016 27.624489710935883 40.22178540672196 26.794127802981514 C 40.67409661662991 25.963765895027144 41.56076604584282 25.464496426708664 42.50531179204085 25.508310375734194 C 43.44985753823889 25.552124324759724 44.286500449731285 26.131331815513494 44.66 27 L 46.51 30.2 C 47.12881235857921 31.375554236731855 46.70695906056758 32.830007274694665 45.55517595587755 33.4920134516894 C 44.40339285118752 34.15401962868414 42.93428820086931 33.78642559840623 42.23 32.66 L 40.379999999999995 29.459999999999997 Z M 95.45 77.72 C 96.54566362923889 78.43494655807633 96.89379757635908 79.88022265663558 96.24384618991307 81.01564793581473 C 95.59389480346707 82.15107321499387 94.17133588425264 82.5827517615625 93 82 L 89.8 80.15 C 88.6181106353621 79.46516691020982 88.21516691020982 77.9518893646379 88.9 76.77000000000001 C 89.58483308979018 75.58811063536211 91.0981106353621 75.18516691020982 92.28 75.87 L 95.48 77.72 Z M 27.450000000000003 44.17 C 26.330919020233715 43.455981689066554 25.972519442828958 41.987370815211904 26.63688841780411 40.838119644791185 C 27.301257392779256 39.688868474370466 28.75277994546302 39.26655291114974 29.930000000000003 39.88 L 33.13 41.730000000000004 C 34.30912794088874 42.4203559372885 34.70535593728849 43.93587205911126 34.015 45.115 C 33.324644062711506 46.29412794088874 31.809127940888743 46.690355937288494 30.63 46 L 27.43 44.16 Z M 99.29 58.47 C 100.65414329943668 58.47000004616755 101.75999991640626 59.57585670056333 101.75999991640626 60.94 C 101.75999991640626 62.30414329943667 100.65414329943668 63.40999995383245 99.29 63.41 L 95.58 63.41 C 94.69755397301672 63.41000002986517 93.88214020510395 62.93922069599007 93.44091718299099 62.175000024131435 C 92.99969416087801 61.4107793522728 92.99969416087801 60.4692206477272 93.44091718299099 59.70499997586856 C 93.88214020510395 58.94077930400992 94.69755397301672 58.46999997013483 95.58 58.47 Z M 23.6 63.41 C 22.235856700563332 63.40999995383245 21.130000083593746 62.30414329943667 21.130000083593746 60.94 C 21.130000083593746 59.57585670056333 22.23585670056333 58.47000004616755 23.6 58.47 L 27.3 58.47 C 28.664143299436674 58.47000004616755 29.769999916406256 59.57585670056333 29.769999916406256 60.94 C 29.769999916406256 62.30414329943667 28.664143299436674 63.40999995383245 27.300000000000004 63.41 Z M 93 39.88 C 94.18465078838705 39.200689757708126 95.69568975770812 39.610349211612956 96.375 40.795 C 97.05431024229188 41.979650788387055 96.64465078838704 43.490689757708125 95.46 44.17 L 92.24 46 C 91.0581106353621 46.68207166604103 89.54707166604102 46.276889364637896 88.865 45.095 C 88.18292833395897 43.9131106353621 88.5881106353621 42.40207166604103 89.77 41.72 L 93 39.88 Z M 29.9 82 C 28.724445763268143 82.61881235857923 27.269992725305315 82.1969590605676 26.607986548310578 81.04517595587757 C 25.945980371315837 79.89339285118753 26.313574401593748 78.42428820086931 27.439999999999998 77.72 L 30.639999999999997 75.87 C 31.40633469035301 75.43056332441296 32.34889382152816 75.43334178149168 33.11262449111762 75.87728875334514 C 33.876355160707085 76.32123572519862 34.34522851188117 77.13890510590464 34.34262449111762 78.02228875334515 C 34.34002047035407 78.90567240078566 33.86633469035301 79.72056332441298 33.099999999999994 80.16000000000001 L 29.9 82 Z M 78.21 26.94 C 78.63141712838257 26.131290163611133 79.4626664531851 25.6190990717764 80.3744998641457 25.60629960998008 C 81.2863332751063 25.593500148183765 82.13163157033198 26.082157437731468 82.5755820071155 26.87872005626565 C 83.01953244389902 27.675282674799835 82.9905061115704 28.651229715663767 82.5 29.42 L 80.65 32.620000000000005 C 79.96516691020982 33.8018893646379 78.4518893646379 34.20483308979019 77.27000000000001 33.52 C 76.08811063536211 32.83516691020982 75.68516691020982 31.321889364637904 76.37 30.140000000000004 L 78.21000000000001 26.940000000000005 Z M 44.66 95 C 43.975166910209815 96.1818893646379 42.46188936463789 96.58483308979018 41.279999999999994 95.9 C 40.0981106353621 95.21516691020982 39.695166910209814 93.70188936463789 40.379999999999995 92.52 L 42.23 89.32 C 42.91483308979018 88.1381106353621 44.4281106353621 87.73516691020981 45.61 88.41999999999999 C 46.791889364637896 89.10483308979018 47.19483308979018 90.6181106353621 46.51 91.8 L 44.66 95 Z M 59 23.11 C 59.00000004616755 21.745856700563326 60.10585670056333 20.640000083593744 61.47 20.640000083593744 C 62.83414329943667 20.640000083593744 63.93999995383245 21.745856700563326 63.94 23.11 L 63.94 26.8 C 63.93999995383245 28.164143299436674 62.83414329943667 29.269999916406256 61.47 29.269999916406256 C 60.10585670056333 29.269999916406256 59.00000004616755 28.164143299436674 59 26.8 L 59 23.11 Z M 63.94 98.78 C 63.93999995383245 100.14414329943668 62.83414329943667 101.24999991640625 61.47 101.24999991640625 C 60.10585670056333 101.24999991640625 59.00000004616755 100.14414329943668 59 98.78 L 59 95.08 C 58.99999997013483 94.19755397301672 59.47077930400993 93.38214020510395 60.23499997586856 92.94091718299099 C 60.9992206477272 92.49969416087801 61.9407793522728 92.49969416087801 62.70500002413144 92.94091718299099 C 63.469220695990074 93.38214020510395 63.94000002986517 94.19755397301672 63.94 95.08 L 63.94 98.78 Z M 93.61 28.78 C 78.27628883191437 13.44158845134034 54.24276660440337 11.071249015292182 36.2080910152974 23.11865717713492 C 18.173415426191426 35.16606533897766 11.160817946518335 58.275634272439696 19.459131854672634 78.31378671481977 C 27.757445762826933 98.35193915719987 49.05532637318041 109.73741153253327 70.32720657087634 105.50696476213166 C 91.59908676857226 101.27651799173005 106.92007050937318 82.60846622095158 106.92 60.919999999999995 C 106.91991226159607 48.86571172462503 102.11964970168799 37.30765824454651 93.57999999999998 28.799999999999983 Z" stroke-linecap="round" />
</g>
<g transform="matrix(NaN NaN NaN NaN 0 0)"  >
<g style=""   >
</g>
</g>
<g transform="matrix(0.3 0 0 0.3 260.07 615.14)" id="2f497b23-b978-47af-827d-46b353f5811c"  >
<path style="stroke: rgb(0,0,0); stroke-width: 0; stroke-dasharray: none; stroke-linecap: butt; stroke-dashoffset: 0; stroke-linejoin: miter; stroke-miterlimit: 4; fill: rgb(0,191,99); fill-rule: nonzero; opacity: 1;" vector-effect="non-scaling-stroke"  transform=" translate(-306, -306)" d="M 554.625 248.625 L 363.375 248.625 L 363.375 57.375 C 363.375 25.685 337.69 0 306 0 C 274.31 0 248.625 25.685 248.625 57.375 L 248.625 248.625 L 57.375 248.625 C 25.685 248.625 0 274.31 0 306 C 0 337.69 25.685 363.375 57.375 363.375 L 248.625 363.375 L 248.625 554.625 C 248.625 586.315 274.31 612 306 612 C 337.69 612 363.375 586.315 363.375 554.625 L 363.375 363.375 L 554.625 363.375 C 586.315 363.375 612 337.69 612 306 C 612 274.31 586.315 248.625 554.625 248.625 z" stroke-linecap="round" />
</g>
<g transform="matrix(NaN NaN NaN NaN 0 0)"  >
<g style=""   >
</g>
</g>
<g transform="matrix(0.3 0 0 0.3 261.36 828.4)" id="deffa70b-3884-4bca-95ce-4f6923dba1ed"  >
<path style="stroke: rgb(0,0,0); stroke-width: 0; stroke-dasharray: none; stroke-linecap: butt; stroke-dashoffset: 0; stroke-linejoin: miter; stroke-miterlimit: 4; fill: rgb(204,0,0); fill-rule: nonzero; opacity: 1;" vector-effect="non-scaling-stroke"  transform=" translate(-306, -306)" d="M 554.625 248.625 L 57.375 248.625 C 25.685 248.625 0 274.31 0 306 C 0 337.69 25.685 363.375 57.375 363.375 L 554.625 363.375 C 586.315 363.375 612 337.69 612 306 C 612 274.31 586.315 248.625 554.625 248.625 z" stroke-linecap="round" />
</g>
<g transform="matrix(NaN NaN NaN NaN 0 0)"  >
<g style=""   >
</g>
</g>
</svg>