<?xml version="1.0" encoding="UTF-8" standalone="no" ?>
<!DOCTYPE svg PUBLIC "-//W3C//DTD SVG 1.1//EN" "http://www.w3.org/Graphics/SVG/1.1/DTD/svg11.dtd">
<svg xmlns="http://www.w3.org/2000/svg" xmlns:xlink="http://www.w3.org/1999/xlink" version="1.1" width="1080" height="1080" viewBox="0 0 1080 1080" xml:space="preserve">
<desc>Created with Fabric.js 5.2.4</desc>
<defs>
</defs>
<rect x="0" y="0" width="100%" height="100%" fill="transparent"></rect>
<g transform="matrix(1 0 0 1 540 540)" id="bd0ed353-db16-464a-9185-3d4ddddd9940"  >
<rect style="stroke: none; stroke-width: 1; stroke-dasharray: none; stroke-linecap: butt; stroke-dashoffset: 0; stroke-linejoin: miter; stroke-miterlimit: 4; fill: rgb(255,255,255); fill-rule: nonzero; opacity: 1; visibility: hidden;" vector-effect="non-scaling-stroke"  x="-540" y="-540" rx="0" ry="0" width="1080" height="1080" />
</g>
<g transform="matrix(1 0 0 1 540 540)" id="2d8cdbc7-4ab7-4f95-b2ca-4ec1150363ba"  >
</g>
<g transform="matrix(3.98 0 0 3.98 267.25 782.08)" id="61d70b89-46cc-46b3-980c-dc7b4097e69f"  >
<path style="stroke: rgb(0,0,0); stroke-width: 0; stroke-dasharray: none; stroke-linecap: butt; stroke-dashoffset: 0; stroke-linejoin: miter; stroke-miterlimit: 4; fill: rgb(0,0,0); fill-rule: nonzero; opacity: 1;" vector-effect="non-scaling-stroke"  transform=" translate(-61.44, -61.45)" d="M 81.61 4.73 C 81.61 2.12 84.19 0 87.38 0 C 90.57 0 93.14999999999999 2.12 93.14999999999999 4.73 L 93.14999999999999 25.45 C 93.14999999999999 28.06 90.57 30.18 87.38 30.18 C 84.19 30.18 81.61 28.06 81.61 25.45 L 81.61 4.73 Z M 66.11 105.66 C 65.31 105.66 65.31 95.56 66.11 95.56 L 81.9 95.56 C 82.7 95.56 82.7 105.66 81.9 105.66 Z M 15.85 68.94 C 15.049999999999999 68.94 15.049999999999999 58.839999999999996 15.85 58.839999999999996 L 31.64 58.839999999999996 C 32.44 58.839999999999996 32.44 68.94 31.64 68.94 Z M 40.98 68.94 C 40.18 68.94 40.18 58.839999999999996 40.98 58.839999999999996 L 56.77 58.839999999999996 C 57.57 58.839999999999996 57.57 68.94 56.77 68.94 Z M 66.11 68.94 C 65.31 68.94 65.31 58.839999999999996 66.11 58.839999999999996 L 81.9 58.839999999999996 C 82.7 58.839999999999996 82.7 68.94 81.9 68.94 Z M 91.25 58.839999999999996 L 107 58.839999999999996 C 107.8 58.839999999999996 107.8 68.94 107 68.94 L 91.25 68.94 C 90.45 68.94 90.45 58.839999999999996 91.25 58.839999999999996 Z M 15.85 87.3 C 15.049999999999999 87.3 15.049999999999999 77.2 15.85 77.2 L 31.64 77.2 C 32.44 77.2 32.44 87.3 31.64 87.3 Z M 41 87.3 C 40.2 87.3 40.2 77.2 41 77.2 L 56.77 77.2 C 57.57 77.2 57.57 87.3 56.77 87.3 Z M 66.13 87.3 C 65.33 87.3 65.33 77.2 66.13 77.2 L 81.9 77.2 C 82.7 77.2 82.7 87.3 81.9 87.3 Z M 91.27 87.3 C 90.47 87.3 90.47 77.2 91.27 77.2 L 107 77.2 C 107.8 77.2 107.8 87.3 107 87.3 Z M 15.86999999999999 105.66 C 15.06999999999999 105.66 15.06999999999999 95.56 15.86999999999999 95.56 L 31.64 95.56 C 32.44 95.56 32.44 105.66 31.64 105.66 Z M 40.999999999999986 105.66 C 40.19999999999999 105.66 40.19999999999999 95.56 40.999999999999986 95.56 L 56.77 95.56 C 57.57 95.56 57.57 105.66 56.77 105.66 Z M 29.61 4.73 C 29.61 2.12 32.19 0 35.38 0 C 38.57000000000001 0 41.150000000000006 2.12 41.150000000000006 4.73 L 41.150000000000006 25.45 C 41.150000000000006 28.06 38.57000000000001 30.18 35.38000000000001 30.18 C 32.19000000000001 30.18 29.61000000000001 28.06 29.61000000000001 25.45 L 29.61000000000001 4.73 Z M 6.4 43.47 L 116.47 43.47 L 116.47 21.47 C 116.46156128400695 20.694799795697623 116.15335854862933 19.952962979149138 115.61 19.4 C 115.06188887241645 18.8493630966298 114.31693422457583 18.539865030377175 113.54 18.54 L 103 18.54 C 101.23268880054147 18.54 99.8 17.107311199458536 99.8 15.34 C 99.8 13.57268880054146 101.23268880054147 12.139999999999999 103 12.139999999999999 L 113.55 12.139999999999999 C 118.69598031794759 12.156467263351972 122.86353273664801 16.324019682052402 122.88 21.46999999999999 L 122.88 113.56 C 122.86353273664803 118.70598031794759 118.69598031794759 122.87353273664803 113.55 122.89 L 9.33 122.89 C 4.180129589602784 122.87350562053905 0.010977638413649515 118.69988512492205 0 113.55 L 0 21.47 C 0.01646726335197407 16.32401968205241 4.184019682052411 12.156467263351972 9.33 12.139999999999997 L 20.6 12.139999999999999 C 22.36731119945854 12.139999999999999 23.8 13.57268880054146 23.8 15.339999999999998 C 23.8 17.107311199458536 22.36731119945854 18.54 20.6 18.54 L 9.33 18.54 C 8.554799795697622 18.548438715993047 7.8129629791491375 18.856641451370677 7.259999999999997 19.400000000000002 C 6.709363096629802 19.94811112758355 6.399865030377174 20.693065775424177 6.399999999999999 21.47 L 6.3999999999999995 43.47 Z M 116.48 49.879999999999995 L 6.4 49.879999999999995 L 6.4 113.55 C 6.408438715993048 114.32520020430238 6.716641451370679 115.06703702085085 7.260000000000001 115.61999999999999 C 7.808111127583554 116.1706369033702 8.553065775424178 116.48013496962281 9.330000000000002 116.47999999999999 L 113.55 116.47999999999999 C 114.32520020430238 116.47156128400694 115.06703702085085 116.16335854862932 115.61999999999999 115.61999999999999 C 116.1706369033702 115.07188887241644 116.48013496962281 114.32693422457582 116.47999999999999 113.55 L 116.47999999999999 49.88 Z M 50.43 18.54 C 48.66268880054146 18.54 47.23 17.107311199458536 47.23 15.34 C 47.23 13.57268880054146 48.66268880054146 12.139999999999999 50.43 12.139999999999999 L 71.92 12.139999999999999 C 73.68731119945853 12.139999999999999 75.12 13.57268880054146 75.12 15.339999999999998 C 75.12 17.107311199458536 73.68731119945855 18.54 71.92 18.54 Z" stroke-linecap="round" />
</g>
<g transform="matrix(0.57 0 0 0.57 799.72 787.89)" id="7dc69c88-22ae-4c50-8176-0573dbcddf2d"  >
<path style="stroke: rgb(0,0,0); stroke-width: 0; stroke-dasharray: none; stroke-linecap: butt; stroke-dashoffset: 0; stroke-linejoin: miter; stroke-miterlimit: 4; fill: rgb(0,0,0); fill-rule: nonzero; opacity: 1;" vector-effect="non-scaling-stroke"  transform=" translate(-511.94, -514.68)" d="M 511.877 60.832 C 390.709 60.832 276.728 108.096 191.02500000000003 193.831 C 105.32400000000004 279.534 58.09200000000004 393.481 58.09200000000004 514.682 C 58.09200000000004 635.916 105.32500000000005 749.863 191.02500000000003 835.567 C 276.72800000000007 921.3050000000001 390.70900000000006 968.534 511.877 968.534 C 633.177 968.534 747.123 921.305 832.8299999999999 835.567 C 918.597 749.866 965.7959999999999 635.917 965.7959999999999 514.682 C 965.7959999999999 393.481 918.5989999999999 279.535 832.8299999999999 193.83100000000002 C 747.1249999999999 108.09600000000002 633.18 60.83200000000002 511.87699999999995 60.83200000000002 M 792.716 795.457 C 717.7760000000001 870.462 617.9680000000001 911.777 511.877 911.777 C 405.851 911.777 306.175 870.461 231.103 795.4570000000001 C 156.096 720.45 114.784 620.7750000000001 114.784 514.6830000000001 C 114.784 408.5910000000001 156.097 308.9160000000001 231.10399999999998 233.91000000000008 C 306.17699999999996 158.9020000000001 405.852 117.58900000000008 511.878 117.58900000000008 C 617.968 117.58900000000008 717.778 158.90300000000008 792.717 233.91000000000008 C 867.725 308.91600000000005 909.039 408.58900000000006 909.039 514.6830000000001 C 909.039 620.7760000000001 867.725 720.45 792.717 795.4570000000001 M 721.654 573.712 L 540.288 495.998 L 540.288 202.69 C 540.288 187.046 527.587 174.278 511.877 174.278 C 496.233 174.278 483.564 187.046 483.564 202.69 L 483.564 514.683 C 483.564 526.016 490.317 536.343 500.778 540.754 L 699.3240000000001 625.8580000000001 C 702.9670000000001 627.3950000000001 706.744 628.1640000000001 710.4540000000001 628.1640000000001 C 721.4520000000001 628.1640000000001 732.0150000000001 621.6800000000001 736.561 610.9840000000002 C 742.7090000000001 596.5430000000001 736.056 579.9320000000001 721.652 573.7140000000002 M 228.262 486.337 L 199.917 486.337 C 184.274 486.337 171.539 499.039 171.539 514.682 C 171.539 530.326 184.274 543.027 199.91699999999997 543.027 L 228.26199999999997 543.027 C 243.90499999999997 543.027 256.674 530.325 256.674 514.682 C 256.674 499.039 243.90499999999997 486.337 228.26199999999997 486.337 M 767.18 514.682 C 767.18 530.326 779.948 543.0600000000001 795.5909999999999 543.0600000000001 L 823.9359999999999 543.0600000000001 C 839.6129999999999 543.0600000000001 852.281 530.325 852.281 514.682 C 852.281 499.039 839.6129999999999 486.30400000000003 823.9359999999999 486.30400000000003 L 795.5909999999999 486.30400000000003 C 779.9469999999999 486.30400000000003 767.1799999999998 499.03700000000003 767.1799999999998 514.682 M 511.877 769.986 C 496.233 769.986 483.564 782.686 483.564 798.331 L 483.564 826.741 C 483.564 842.319 496.233 855.054 511.877 855.054 C 527.586 855.054 540.288 842.319 540.288 826.741 L 540.288 798.331 C 540.288 782.686 527.587 769.986 511.877 769.986 z" stroke-linecap="round" />
</g>
<g transform="matrix(33.88 0 0 33.88 540 260.58)" id="cc834678-eee5-48f9-9b3a-947f5c6dc493"  >
<path style="stroke: rgb(0,0,0); stroke-width: 0; stroke-dasharray: none; stroke-linecap: butt; stroke-dashoffset: 0; stroke-linejoin: miter; stroke-miterlimit: 4; fill: rgb(0,0,0); fill-rule: nonzero; opacity: 1;" vector-effect="non-scaling-stroke"  transform=" translate(-7.5, -7.5)" d="M 4 4 L 4 1.5 C 4 0.671573 4.67157 0 5.5 0 L 13.5 0 C 14.3284 0 15 0.671573 15 1.5 L 15 9.5 C 15 10.3284 14.3284 11 13.5 11 L 11 11 L 11 13.5 C 11 14.3284 10.3284 15 9.5 15 L 1.5 15 C 0.671573 15 0 14.3284 0 13.5 L 0 5.5 C 0 4.67157 0.671573 4 1.5 4 L 4 4 Z M 10 5 L 10 10 L 5 10 L 5 5 L 10 5 Z" stroke-linecap="round" />
</g>
</svg>