<svg id="Layer_1" data-name="Layer 1" xmlns="http://www.w3.org/2000/svg" viewBox="0 0 122.87 122.88"><title>sunday</title><path d="M81.6,4.73C81.6,2.12,84.18,0,87.37,0s5.77,2.12,5.77,4.73V25.45c0,2.61-2.58,4.73-5.77,4.73s-5.77-2.12-5.77-4.73V4.73ZM22.43,95.49l1.24-7.29a30.33,30.33,0,0,0,7.32,1A41,41,0,0,0,36.23,89V86.74l-4-.36q-5.4-.48-7.41-2.58c-1.34-1.4-2-3.48-2-6.22,0-3.77.82-6.37,2.45-7.78s4.42-2.12,8.34-2.12a47.13,47.13,0,0,1,10.61,1.1l-1.1,7.08a43.87,43.87,0,0,0-6.59-.66,33.29,33.29,0,0,0-4.2.22v2.16l3.18.31q5.79.58,8,2.77a8.14,8.14,0,0,1,2.22,6.08A12.84,12.84,0,0,1,45,91.45a8,8,0,0,1-1.79,2.92,6.79,6.79,0,0,1-2.94,1.52,17,17,0,0,1-3.34.64c-1,.08-2.23.11-3.82.11a46.45,46.45,0,0,1-10.66-1.15Zm34.8-27.15V89.08h3.14a4.41,4.41,0,0,0,2.3-.42c.42-.28.62-.92.62-1.92V68.34h8.85V83.86a30.61,30.61,0,0,1-.49,6.06,8.81,8.81,0,0,1-1.81,3.89A6.94,6.94,0,0,1,66.21,96a23.24,23.24,0,0,1-6,.62,23,23,0,0,1-6-.62,6.85,6.85,0,0,1-3.6-2.21,8.71,8.71,0,0,1-1.81-3.89,29.87,29.87,0,0,1-.49-6.06V68.34ZM92.13,96l-6.77-9.82A4.48,4.48,0,0,1,84.92,84h-.18V96H75.9V68.34h8.31L91,78.16a4.61,4.61,0,0,1,.44,2.12h.17V68.34h8.85V96ZM29.61,4.73C29.61,2.12,32.19,0,35.38,0s5.77,2.12,5.77,4.73V25.45c0,2.61-2.58,4.73-5.77,4.73s-5.77-2.12-5.77-4.73V4.73ZM6.4,38.76H116.46V21.47a3,3,0,0,0-.86-2.07,2.92,2.92,0,0,0-2.07-.86H103a3.2,3.2,0,1,1,0-6.4h10.55a9.36,9.36,0,0,1,9.33,9.33v92.08a9.36,9.36,0,0,1-9.33,9.33H9.33A9.36,9.36,0,0,1,0,113.54V21.47a9.36,9.36,0,0,1,9.33-9.33H20.6a3.2,3.2,0,1,1,0,6.4H9.33a3,3,0,0,0-2.07.86,2.92,2.92,0,0,0-.86,2.07V38.76Zm110.07,6.41H6.4v68.37a3,3,0,0,0,.86,2.07,2.92,2.92,0,0,0,2.07.86H113.54a3,3,0,0,0,2.07-.86,2.92,2.92,0,0,0,.86-2.07V45.17Zm-66-26.63a3.2,3.2,0,0,1,0-6.4H71.91a3.2,3.2,0,1,1,0,6.4Z"/></svg>